<svg width="64" height="64" viewBox="0 0 64 64" fill="none" xmlns="http://www.w3.org/2000/svg">
<path d="M59.7333 0H4.26667C1.91027 0 0 1.91027 0 4.26667V59.7333C0 62.0897 1.91027 64 4.26667 64H59.7333C62.0897 64 64 62.0897 64 59.7333V4.26667C64 1.91027 62.0897 0 59.7333 0ZM61.8667 59.7333C61.8667 60.9116 60.9116 61.8667 59.7333 61.8667H4.26667C3.0884 61.8667 2.13333 60.9116 2.13333 59.7333V10.6667H61.8667V59.7333ZM61.8667 8.53333H2.13333V4.26667C2.13333 3.0884 3.0884 2.13333 4.26667 2.13333H59.7333C60.9116 2.13333 61.8667 3.0884 61.8667 4.26667V8.53333Z" fill="#00A3FF"/>
<path d="M6.4 4.26672H4.26666V6.40006H6.4V4.26672Z" fill="#00A3FF"/>
<path d="M10.6667 4.26672H8.53333V6.40006H10.6667V4.26672Z" fill="#00A3FF"/>
<path d="M14.9333 4.26672H12.8V6.40006H14.9333V4.26672Z" fill="#00A3FF"/>
<path d="M50.0416 30.1302L47.0784 28.8822L45.9733 26.2294L47.1893 23.2427C47.3511 22.8454 47.2591 22.3898 46.9557 22.0864L43.4805 18.6102C43.1772 18.3068 42.7216 18.2148 42.3243 18.3766L39.3376 19.5926L36.6933 18.4939L35.4453 15.5296C35.2788 15.1339 34.8912 14.8767 34.4619 14.8768H29.5467C29.1173 14.8767 28.7297 15.1339 28.5632 15.5296L27.3067 18.4939L24.6528 19.5936L21.6661 18.3776C21.2688 18.2159 20.8132 18.3079 20.5099 18.6112L17.0347 22.0875C16.7313 22.3908 16.6393 22.8464 16.8011 23.2438L18.0171 26.2304L16.9163 28.8832L13.9531 30.1312C13.5573 30.2978 13.3001 30.6854 13.3003 31.1147V36.0299C13.3 36.459 13.5567 36.8464 13.952 37.0134L16.9163 38.2614L18.0267 40.9142L16.8107 43.9008C16.6489 44.2982 16.7409 44.7538 17.0443 45.0571L20.5152 48.5334C20.8185 48.8367 21.2741 48.9287 21.6715 48.767L24.6581 47.552L27.312 48.6507L28.56 51.616C28.7277 52.0119 29.1167 52.2684 29.5467 52.2667H34.4533C34.8824 52.267 35.2699 52.0103 35.4368 51.615L36.6848 48.6496L39.3387 47.5499L42.3253 48.7659C42.7227 48.9276 43.1783 48.8356 43.4816 48.5323L46.9568 45.056C47.2612 44.7534 47.3545 44.2978 47.1936 43.8998L45.9776 40.9131L47.0784 38.2592L50.0427 37.0112C50.438 36.8443 50.6947 36.4568 50.6944 36.0278V31.1136C50.6945 30.6843 50.4373 30.2967 50.0416 30.1302ZM48.5611 35.3206L45.8453 36.4651C45.5869 36.5743 45.3819 36.7808 45.2747 37.04H45.2736L43.84 40.5035C43.7328 40.7627 43.7328 41.0539 43.84 41.3131L44.9515 44.0534L42.4768 46.527L39.7419 45.4134C39.482 45.3078 39.1911 45.3078 38.9312 45.4134L35.4677 46.8491C35.2085 46.9563 35.002 47.1614 34.8928 47.4198L33.7493 50.1334H30.2507L29.1072 47.4176C28.9983 47.1588 28.7917 46.9534 28.5323 46.8459L25.0667 45.4112C24.8073 45.3048 24.5164 45.3048 24.2571 45.4112L21.5221 46.5238L19.0485 44.0534L20.16 41.3131C20.2672 41.0539 20.2672 40.7627 20.16 40.5035L18.7253 37.04C18.6181 36.7808 18.4131 36.5743 18.1547 36.4651L15.4389 35.3206V31.8219L18.1536 30.6795C18.4124 30.5706 18.6179 30.364 18.7253 30.1046L20.16 26.6411C20.2667 26.3814 20.2667 26.0902 20.16 25.8304L19.0464 23.0944L21.5211 20.6208L24.256 21.7344C24.5153 21.8427 24.8073 21.8427 25.0667 21.7344L28.5301 20.2987C28.7893 20.1915 28.9959 19.9864 29.1051 19.728L30.2485 17.0123H33.7472L34.8907 19.728C34.9999 19.9864 35.2064 20.1915 35.4656 20.2987L38.9333 21.7323C39.1928 21.84 39.4845 21.84 39.744 21.7323L42.4789 20.6187L44.9536 23.0923L43.84 25.8304C43.7333 26.0902 43.7333 26.3814 43.84 26.6411L45.2747 30.1046C45.3821 30.364 45.5876 30.5706 45.8464 30.6795L48.5611 31.8219V35.3206Z" fill="#00A3FF"/>
<path d="M32 22.9056C26.1089 22.9056 21.3333 27.6812 21.3333 33.5723C21.3333 39.4634 26.1089 44.239 32 44.239C37.8911 44.239 42.6667 39.4634 42.6667 33.5723C42.6603 27.6839 37.8884 22.9122 32 22.9056ZM32 42.1056C27.2872 42.1056 23.4667 38.2851 23.4667 33.5723C23.4667 28.8595 27.2872 25.039 32 25.039C36.7128 25.039 40.5333 28.8595 40.5333 33.5723C40.528 38.283 36.7107 42.1003 32 42.1056Z" fill="#00A3FF"/>
<path d="M33.0667 32.5056H30.9333V34.6389H33.0667V32.5056Z" fill="#00A3FF"/>
<path d="M28.8 32.5056H26.6667V34.6389H28.8V32.5056Z" fill="#00A3FF"/>
<path d="M37.3333 32.5056H35.2V34.6389H37.3333V32.5056Z" fill="#00A3FF"/>
<path d="M7.46668 52.2667H5.33334V54.4001H7.46668V52.2667Z" fill="#00A3FF"/>
<path d="M19.2 52.2667H9.60001V54.4001H19.2V52.2667Z" fill="#00A3FF"/>
<path d="M14.9333 56.5333H5.33334V58.6667H14.9333V56.5333Z" fill="#00A3FF"/>
<path d="M46.9333 52.2667H44.8V54.4001H46.9333V52.2667Z" fill="#00A3FF"/>
<path d="M58.6667 52.2667H49.0667V54.4001H58.6667V52.2667Z" fill="#00A3FF"/>
<path d="M54.4 56.5333H44.8V58.6667H54.4V56.5333Z" fill="#00A3FF"/>
</svg>
