<svg width="78" height="61" viewBox="0 0 78 61" fill="none" xmlns="http://www.w3.org/2000/svg">
<path d="M17.9656 16.6365H53.455C54.3467 16.6365 55.0682 16.0164 55.0682 15.2501C55.0682 14.4837 54.3467 13.8636 53.455 13.8636H17.9656C17.074 13.8636 16.3524 14.4837 16.3524 15.2501C16.3526 16.0165 17.0741 16.6365 17.9656 16.6365Z" fill="#00A3FF"/>
<path d="M37.3235 30.5H17.9657C17.074 30.5 16.3524 31.1201 16.3524 31.8864C16.3524 32.6527 17.074 33.2728 17.9657 33.2728H37.3235C38.2151 33.2728 38.9367 32.6527 38.9367 31.8864C38.9367 31.1201 38.2151 30.5 37.3235 30.5Z" fill="#00A3FF"/>
<path d="M71.4771 5.5456C71.3836 5.5456 71.293 5.56575 71.1998 5.56952V5.5456C71.1998 2.48725 68.3043 0.00012207 64.7472 0.00012207H6.67373C3.11658 0.00012207 0.221069 2.48725 0.221069 5.5456V59.6136C0.221069 60.1742 0.61488 60.6804 1.21664 60.8943C1.4152 60.9661 1.62617 61 1.83412 61C2.25319 61 2.6659 60.8593 2.97472 60.5939L18.6337 47.1364H64.7472C68.3043 47.1364 71.1998 44.6494 71.1998 41.5909V18.5961L75.8439 14.6056C75.8439 14.6056 75.8439 14.6056 75.8439 14.6043C76.9939 13.616 77.6523 12.2486 77.6523 10.8527C77.6523 7.92576 74.883 5.5456 71.4771 5.5456ZM67.9734 41.5909C67.9734 43.1194 66.5272 44.3636 64.7472 44.3636H17.9657C17.5372 44.3636 17.1276 44.5098 16.8251 44.7697L3.44732 56.2669V5.5456C3.44732 4.01714 4.89356 2.77293 6.67357 2.77293H64.747C66.5273 2.77293 67.9734 4.01714 67.9734 5.5456V6.49257C67.6672 6.67349 67.3742 6.87248 67.1102 7.0998L49.5581 22.1819H17.9657C17.074 22.1819 16.3525 22.802 16.3525 23.5683C16.3525 24.3346 17.074 24.9547 17.9657 24.9547H46.9699L45.4208 31.6144C45.3137 32.0693 45.4807 32.5392 45.862 32.8667C46.1676 33.1294 46.5803 33.2729 47.0026 33.2729C47.1066 33.2729 47.2137 33.2634 47.3176 33.2458L55.3803 31.8594C55.6953 31.8052 55.982 31.674 56.2057 31.4803L67.9734 21.3686V41.5909ZM54.2711 29.2234L49.0599 30.1196L50.1028 25.6356L64.7464 13.0508L68.9185 16.6363L54.2711 29.2234ZM73.5627 12.6453L71.1997 14.6761L67.0273 11.0903L69.3911 9.05885C69.9393 8.58901 70.6986 8.31828 71.4769 8.31828C73.1026 8.31828 74.4259 9.45553 74.4259 10.8527C74.4261 11.5188 74.1109 12.1728 73.5627 12.6453Z" fill="#00A3FF"/>
</svg>
