<svg width="38" height="29" viewBox="0 0 38 29" fill="none" xmlns="http://www.w3.org/2000/svg">
<path d="M1.35008 2.3529C6.40591 6.84717 15.2773 14.754 17.8848 17.2193C18.2348 17.552 18.6102 17.7212 19 17.7212C19.3889 17.7212 19.7637 17.5536 20.1129 17.2225C22.7226 14.7547 31.594 6.84717 36.6499 2.3529C36.9647 2.07363 37.0127 1.58275 36.7579 1.24132C36.1687 0.452364 35.2904 0 34.349 0H3.65092C2.70962 0 1.8312 0.452365 1.24215 1.2414C0.98731 1.58275 1.0353 2.07363 1.35008 2.3529Z" fill="#00A3FF"/>
<path d="M36.9737 4.78848C36.7017 4.65556 36.3816 4.70193 36.1553 4.90493C32.8441 7.85096 28.4815 11.7434 25.1914 14.7138C25.0183 14.8696 24.9208 15.0985 24.9246 15.3385C24.9283 15.5776 25.034 15.8034 25.2124 15.9528C28.2695 18.5228 32.8764 22.0581 36.2033 24.5708C36.336 24.6714 36.4933 24.7226 36.6514 24.7226C36.7714 24.7226 36.8913 24.6935 37.0015 24.6337C37.2578 24.496 37.4189 24.2191 37.4189 23.917V5.51929C37.4188 5.20542 37.245 4.91988 36.9737 4.78848Z" fill="#00A3FF"/>
<path d="M1.79673 24.5711C5.12436 22.0584 9.7321 18.5232 12.7884 15.9531C12.9668 15.8036 13.0725 15.5778 13.0762 15.3387C13.08 15.0988 12.9825 14.8699 12.8094 14.7141C9.51921 11.7437 5.1558 7.85124 1.84472 4.90521C1.61686 4.70222 1.29611 4.65743 1.0263 4.78876C0.754985 4.92017 0.581085 5.20571 0.581085 5.51957V23.9174C0.581085 24.2194 0.74225 24.4964 0.998532 24.634C1.10869 24.6938 1.22862 24.7229 1.34856 24.7229C1.50671 24.7229 1.66406 24.6718 1.79673 24.5711Z" fill="#00A3FF"/>
<path d="M36.4783 26.7626C33.2653 24.3499 27.3467 19.8518 23.8138 16.842C23.526 16.5958 23.1093 16.6036 22.826 16.8601C22.1328 17.4949 21.5526 18.0299 21.1412 18.4184C19.8775 19.6157 18.1238 19.6157 16.8572 18.4169C16.4472 18.0291 15.8672 17.4925 15.1739 16.86C14.8928 16.602 14.4754 16.5941 14.1868 16.8419C10.6658 19.8415 4.74052 24.3451 1.52232 26.7626C1.34317 26.8979 1.22776 27.1063 1.20531 27.3368C1.18359 27.5673 1.25625 27.7962 1.40691 27.9661C1.98783 28.6231 2.80625 28.9999 3.65092 28.9999H34.3491C35.1938 28.9999 36.0114 28.6231 36.5937 27.9662C36.7436 27.797 36.8171 27.5681 36.7953 27.3376C36.7728 27.1072 36.6574 26.898 36.4783 26.7626Z" fill="#00A3FF"/>
</svg>
