<svg width="70" height="60" viewBox="0 0 70 60" fill="none" xmlns="http://www.w3.org/2000/svg">
<g clip-path="url(#clip0)">
<path d="M0.0105591 1.85669V51.1058H22.4185V54.6272H18.3229V58.1429H51.5134V54.6272H47.4177V51.1058H69.8259V1.85669H0.0105591ZM43.3267 54.6272H26.5096V51.1058H43.3269V54.6272H43.3267ZM65.735 47.59H4.10144V40.55H65.7348V47.59H65.735ZM65.735 37.0343H4.10144V5.37255H65.7348V37.0343H65.735Z" fill="#00A3FF"/>
<path d="M27.8198 14.8491L24.9271 12.363L14.6404 21.2035L24.9271 30.0439L27.8198 27.5579L20.4258 21.2035L27.8198 14.8491Z" fill="#00A3FF"/>
<path d="M44.9093 12.363L42.0166 14.8491L49.4106 21.2035L42.0166 27.5579L44.9093 30.0439L55.1959 21.2035L44.9093 12.363Z" fill="#00A3FF"/>
<path d="M35.2865 10.6025L30.5375 31.1201L34.55 31.8061L39.299 11.2885L35.2865 10.6025Z" fill="#00A3FF"/>
</g>
<defs>
<clipPath id="clip0">
<rect width="69.8153" height="60" fill="white" transform="translate(0.0105591)"/>
</clipPath>
</defs>
</svg>
