<svg width="30" height="42" viewBox="0 0 30 42" fill="none" xmlns="http://www.w3.org/2000/svg">
<path fill-rule="evenodd" clip-rule="evenodd" d="M15 0.0922852C6.84899 0.0922852 0.23999 6.44928 0.23999 14.2913C0.23999 16.3163 0.68999 18.2423 1.48199 19.9853L15.252 41.9483L28.518 19.9853C29.3338 18.198 29.7554 16.256 29.754 14.2913C29.754 6.44928 23.151 0.0922852 15 0.0922852ZM15 24.3623C13.7819 24.3603 12.5761 24.1183 11.4516 23.6501C10.327 23.1818 9.30584 22.4965 8.44631 21.6334C7.58679 20.7702 6.90581 19.7461 6.4423 18.6197C5.97879 17.4932 5.74183 16.2864 5.74499 15.0683C5.74262 13.8505 5.98013 12.6442 6.44396 11.5183C6.90779 10.3923 7.58885 9.36876 8.44826 8.50601C9.30766 7.64326 10.3286 6.95823 11.4527 6.49003C12.5769 6.02184 13.7822 5.77965 15 5.77729C17.4594 5.78285 19.8159 6.76456 21.5519 8.5067C23.2879 10.2488 24.2612 12.6089 24.258 15.0683C24.262 17.5282 23.289 19.889 21.553 21.6318C19.8169 23.3746 17.4599 24.3567 15 24.3623ZM20.931 14.9483C20.9326 15.729 20.7803 16.5023 20.4829 17.2242C20.1855 17.946 19.7488 18.6022 19.1978 19.1552C18.6467 19.7082 17.9921 20.1472 17.2713 20.4472C16.5505 20.7471 15.7777 20.9021 14.997 20.9033C13.4211 20.8993 11.9112 20.2699 10.799 19.1533C9.68694 18.0367 9.0636 16.5242 9.06599 14.9483C9.06481 14.1682 9.21728 13.3956 9.5147 12.6745C9.81212 11.9533 10.2487 11.2978 10.7994 10.7454C11.3502 10.193 12.0043 9.75449 12.7245 9.45488C13.4448 9.15528 14.2169 9.00047 14.997 8.99929C18.273 8.99929 20.931 11.6663 20.931 14.9483Z" fill="#00A3FF"/>
</svg>
