<svg width="36" height="36" viewBox="0 0 36 36" fill="none" xmlns="http://www.w3.org/2000/svg">
<path d="M32.46 24.5195L27.38 23.9395C26.7827 23.8694 26.1772 23.9355 25.6091 24.133C25.041 24.3304 24.525 24.654 24.1 25.0795L20.42 28.7595C14.7424 25.872 10.1276 21.2572 7.23999 15.5795L10.94 11.8795C11.8 11.0195 12.22 9.81953 12.08 8.59953L11.5 3.55953C11.3866 2.58389 10.9184 1.68401 10.1845 1.03123C9.45055 0.378451 8.5022 0.0183667 7.51999 0.0195341H4.05999C1.79999 0.0195341 -0.0800102 1.89953 0.0599898 4.15953C1.11999 21.2395 14.78 34.8795 31.84 35.9395C34.1 36.0795 35.98 34.1995 35.98 31.9395V28.4795C36 26.4595 34.48 24.7595 32.46 24.5195Z" fill="#00A3FF"/>
</svg>
