<svg width="32" height="32" viewBox="0 0 32 32" fill="none" xmlns="http://www.w3.org/2000/svg">
<path d="M16.021 0C7.19299 0 0.0369873 7.156 0.0369873 15.984C0.0369873 22.755 4.25099 28.536 10.198 30.864C10.057 29.598 9.93199 27.661 10.25 26.281C10.542 25.031 12.125 18.338 12.125 18.338C12.125 18.338 11.646 17.374 11.646 15.963C11.646 13.744 12.938 12.083 14.537 12.083C15.902 12.083 16.563 13.104 16.563 14.333C16.563 15.703 15.693 17.755 15.24 19.656C14.86 21.245 16.037 22.541 17.605 22.541C20.444 22.541 22.631 19.546 22.631 15.223C22.631 11.41 19.881 8.733 15.954 8.733C11.407 8.733 8.73999 12.15 8.73999 15.665C8.73999 17.04 9.26599 18.519 9.92799 19.316C10.058 19.477 10.074 19.618 10.037 19.78C9.91699 20.28 9.64599 21.379 9.59399 21.598C9.52099 21.895 9.36499 21.957 9.05799 21.817C7.06799 20.895 5.81299 17.978 5.81299 15.624C5.81299 10.588 9.47999 5.952 16.376 5.952C21.918 5.952 26.23 9.91 26.23 15.181C26.23 20.697 22.756 25.134 17.923 25.134C16.303 25.134 14.782 24.295 14.246 23.295L13.246 27.092C12.887 28.483 11.907 30.227 11.246 31.285C12.746 31.743 14.324 31.999 15.98 31.999C24.793 31.999 31.959 24.848 31.959 16.015C31.959 7.187 24.792 0.036 15.98 0.036L16.021 0Z" fill="#0D0D0D"/>
</svg>
