<svg width="32" height="28" viewBox="0 0 32 28" fill="none" xmlns="http://www.w3.org/2000/svg">
<path d="M31.937 4.093C30.7393 4.6195 29.4708 4.96722 28.172 5.125C29.541 4.30329 30.566 3.01334 31.057 1.494C29.7621 2.245 28.3527 2.77842 26.885 3.073C25.898 2.01846 24.5906 1.31912 23.1656 1.08349C21.7406 0.847869 20.2777 1.08912 19.0038 1.76983C17.7299 2.45054 16.7163 3.53264 16.1202 4.84825C15.5241 6.16385 15.3788 7.63941 15.707 9.046C10.254 8.791 5.41999 6.171 2.18699 2.213C1.59846 3.21388 1.29066 4.35492 1.29599 5.516C1.29518 6.59536 1.56093 7.65822 2.06963 8.61019C2.57832 9.56216 3.31422 10.3738 4.21199 10.973C3.17161 10.9415 2.1539 10.6614 1.24399 10.156V10.235C1.24367 11.75 1.7672 13.2186 2.72584 14.3917C3.68448 15.5649 5.01927 16.3705 6.50399 16.672C5.94158 16.8223 5.36212 16.8992 4.77999 16.901C4.35899 16.901 3.95699 16.86 3.55599 16.786C3.97851 18.0897 4.79699 19.2293 5.89749 20.046C6.998 20.8628 8.32577 21.3162 9.69599 21.343C7.3744 23.1611 4.50977 24.1475 1.56099 24.144C1.03869 24.1461 0.516747 24.1167 -0.00201416 24.056C3.00608 25.9835 6.50435 27.0067 10.077 27.004C22.144 27.004 28.738 17.009 28.738 8.353C28.738 8.077 28.738 7.796 28.717 7.514C30.0069 6.58954 31.1185 5.43895 31.998 4.118L31.937 4.093Z" fill="#0D0D0D"/>
</svg>
