<svg width="35" height="27" viewBox="0 0 35 27" fill="none" xmlns="http://www.w3.org/2000/svg">
<path d="M34.2847 4.23851C34.0811 3.41849 33.6891 2.6726 33.1479 2.07524C32.6066 1.47788 31.935 1.04992 31.2 0.83404C26.6557 0.222565 22.0804 -0.0532246 17.5037 0.00845673C12.9248 -0.0408832 8.34765 0.234863 3.79983 0.83404C3.07016 1.06009 2.40431 1.49163 1.86567 2.08757C1.32704 2.68351 0.933562 3.42399 0.722723 4.23851C0.224826 7.29803 -0.0168206 10.403 0.000931405 13.5128C-0.0170228 16.618 0.224629 19.7183 0.722723 22.773C0.927228 23.5899 1.31876 24.3327 1.8585 24.9279C2.39824 25.5231 3.06746 25.9499 3.79983 26.1661C8.3442 26.777 12.9195 27.0528 17.4961 26.9917C22.0711 27.0509 26.6449 26.7856 31.1899 26.1973C31.9249 25.9814 32.5965 25.5535 33.1377 24.9561C33.679 24.3588 34.071 23.6129 34.2746 22.7929C34.7717 19.738 35.0134 16.6378 34.9964 13.5327C35.0327 10.416 34.7943 7.30281 34.2847 4.23851ZM14.0239 19.2749V7.73943L23.1413 13.51L14.0239 19.2749Z" fill="#0D0D0D"/>
</svg>
